<svg width="8" height="7" viewBox="0 0 8 7" fill="none" xmlns="http://www.w3.org/2000/svg">
<path fill-rule="evenodd" clip-rule="evenodd" d="M0.723631 3.14074C2.69562 2.28154 4.0105 1.71505 4.66825 1.44127C6.54688 0.660292 6.93926 0.524662 7.19159 0.519616C7.28516 0.517797 7.37694 0.545376 7.45402 0.59847C7.5081 0.645103 7.54257 0.710445 7.55054 0.781413C7.56412 0.869672 7.56793 0.959161 7.56189 1.04826C7.46033 2.12068 7.01937 4.71278 6.79542 5.91074C6.7008 6.4154 6.51407 6.58762 6.33302 6.60466C5.94064 6.64061 5.6391 6.34475 5.2606 6.09557C4.66509 5.70508 4.32886 5.46474 3.75101 5.08119C3.08296 4.6396 3.51634 4.39925 3.89673 4.00435C3.9964 3.90089 5.72616 2.32633 5.76022 2.18376C5.76471 2.16271 5.7642 2.14089 5.75872 2.12008C5.75324 2.09926 5.74295 2.08002 5.72868 2.0639C5.70797 2.05096 5.68453 2.04302 5.66022 2.04072C5.63591 2.03842 5.6114 2.04182 5.58863 2.05065C5.52934 2.06369 4.57846 2.69221 2.736 3.93622C2.466 4.12169 2.22145 4.21211 2.00234 4.20748C1.76073 4.2018 1.29643 4.07059 0.95073 3.95515C0.52744 3.81762 0.19373 3.74508 0.220225 3.51356C0.235786 3.39244 0.403587 3.26817 0.723631 3.14074Z" fill="white"/>
</svg>
