<svg width="15" height="15" viewBox="0 0 15 15" fill="none" xmlns="http://www.w3.org/2000/svg">
<g clip-path="url(#clip0_1_1442)">
<g clip-path="url(#clip1_1_1442)">
<g clip-path="url(#clip2_1_1442)">
<path d="M7.39476 14.0395C11.1401 14.0395 14.1762 11.0034 14.1762 7.25804C14.1762 3.51274 11.1401 0.476562 7.39476 0.476562C3.64945 0.476562 0.613281 3.51274 0.613281 7.25804C0.613281 11.0034 3.64945 14.0395 7.39476 14.0395Z" fill="url(#paint0_linear_1_1442)"/>
<path fill-rule="evenodd" clip-rule="evenodd" d="M3.72363 7.14074C5.69562 6.28154 7.0105 5.71505 7.66825 5.44127C9.54688 4.66029 9.93926 4.52466 10.1916 4.51962C10.2852 4.5178 10.3769 4.54538 10.454 4.59847C10.5081 4.6451 10.5426 4.71045 10.5505 4.78141C10.5641 4.86967 10.5679 4.95916 10.5619 5.04826C10.4603 6.12068 10.0194 8.71278 9.79542 9.91074C9.7008 10.4154 9.51407 10.5876 9.33302 10.6047C8.94064 10.6406 8.6391 10.3448 8.2606 10.0956C7.66509 9.70508 7.32886 9.46474 6.75101 9.08119C6.08296 8.6396 6.51634 8.39925 6.89673 8.00435C6.9964 7.90089 8.72616 6.32633 8.76022 6.18376C8.76471 6.16271 8.7642 6.14089 8.75872 6.12008C8.75324 6.09926 8.74295 6.08002 8.72868 6.0639C8.70797 6.05096 8.68453 6.04302 8.66022 6.04072C8.63591 6.03842 8.6114 6.04182 8.58863 6.05065C8.52934 6.06369 7.57846 6.69221 5.736 7.93622C5.466 8.12169 5.22145 8.21211 5.00234 8.20748C4.76073 8.2018 4.29643 8.07059 3.95073 7.95515C3.52744 7.81762 3.19373 7.74508 3.22023 7.51356C3.23579 7.39244 3.40359 7.26817 3.72363 7.14074Z" fill="white"/>
</g>
</g>
</g>
<defs>
<linearGradient id="paint0_linear_1_1442" x1="0.613281" y1="7.25804" x2="14.1762" y2="7.25804" gradientUnits="userSpaceOnUse">
<stop stop-color="#2AABEE"/>
<stop offset="1" stop-color="#229ED9"/>
</linearGradient>
<clipPath id="clip0_1_1442">
<rect width="13.563" height="13.563" fill="white" transform="translate(0.613281 0.476562)"/>
</clipPath>
<clipPath id="clip1_1_1442">
<rect width="13.563" height="13.563" fill="white" transform="translate(0.613281 0.476562)"/>
</clipPath>
<clipPath id="clip2_1_1442">
<rect width="13.563" height="13.563" fill="white" transform="translate(0.613281 0.476562)"/>
</clipPath>
</defs>
</svg>
