<svg width="16" height="16" viewBox="0 0 16 16" fill="none" xmlns="http://www.w3.org/2000/svg">
<g clip-path="url(#clip0_1_1428)">
<path d="M14.7236 4.65151C14.7732 4.49257 14.7658 4.35847 14.7012 4.24919C14.6366 4.13992 14.4901 4.08529 14.2616 4.08529H12.7269C12.5282 4.08529 12.3792 4.12999 12.2798 4.21939C12.1805 4.3088 12.106 4.40813 12.0563 4.51741C12.0563 4.51741 12.0067 4.62668 11.9073 4.84522C11.8179 5.05383 11.6913 5.3146 11.5274 5.62751C11.3634 5.94043 11.1623 6.28066 10.9239 6.64821C10.6954 7.01576 10.4421 7.35351 10.1639 7.66146C9.98513 7.84027 9.84606 7.96444 9.74672 8.03398C9.64738 8.10351 9.54804 8.13828 9.44871 8.13828C9.39904 8.13828 9.34688 8.106 9.29225 8.04143C9.23761 7.97686 9.21029 7.8651 9.21029 7.70616V4.65151C9.21029 4.46277 9.17801 4.3237 9.11344 4.23429C9.04887 4.14489 8.93712 4.10019 8.77817 4.10019H6.36426C6.23512 4.10019 6.13578 4.13744 6.06624 4.21194C5.99671 4.28645 5.96194 4.36343 5.96194 4.4429C5.96194 4.63165 6.05631 4.79804 6.24505 4.94208C6.43379 5.08612 6.54307 5.42138 6.57287 5.94788V8.19788C6.57287 8.44623 6.55052 8.60765 6.50582 8.68216C6.46111 8.75666 6.38909 8.79391 6.28975 8.79391C6.16061 8.79391 5.99174 8.67967 5.78313 8.4512C5.57452 8.23265 5.35101 7.93464 5.1126 7.55715C4.87419 7.17967 4.63577 6.74258 4.39736 6.24589C4.15895 5.75913 3.94537 5.23761 3.75663 4.68131C3.67716 4.4727 3.59024 4.32121 3.49587 4.22684C3.4015 4.13247 3.25498 4.08529 3.0563 4.08529H1.52153C1.30298 4.08529 1.16142 4.12999 1.09685 4.21939C1.03228 4.3088 1 4.40813 1 4.51741C1 4.62668 1.03477 4.82536 1.10431 5.11344C1.18378 5.41145 1.3154 5.78148 1.49917 6.22354C1.68295 6.66559 1.92881 7.1747 2.23676 7.75086C2.55464 8.32702 2.95199 8.94789 3.42882 9.61345C3.7467 10.0704 4.08942 10.4727 4.45697 10.8204C4.83445 11.1681 5.22684 11.4611 5.63412 11.6996C6.04141 11.938 6.45366 12.1168 6.87088 12.236C7.2881 12.3651 7.70036 12.4297 8.10764 12.4297C8.5944 12.4297 8.89986 12.3775 9.02404 12.2732C9.14821 12.1689 9.21029 12.0224 9.21029 11.8337V10.4479C9.21029 10.2293 9.23761 10.0878 9.29225 10.0232C9.34688 9.95865 9.45367 9.92637 9.61261 9.92637C9.72189 9.92637 9.88828 9.981 10.1118 10.0903C10.3353 10.1995 10.6755 10.4777 11.1325 10.9247C11.659 11.4413 12.0166 11.8212 12.2053 12.0646C12.3941 12.308 12.6375 12.4297 12.9355 12.4297H14.4702C14.6888 12.4297 14.8477 12.3751 14.9471 12.2658C15.0464 12.1565 15.0663 11.9926 15.0067 11.7741C14.9371 11.5555 14.7856 11.2947 14.5522 10.9918C14.3188 10.6888 14.0381 10.3486 13.7103 9.97107C13.5315 9.76246 13.3303 9.55385 13.1068 9.34524C12.8833 9.13663 12.7318 8.97769 12.6524 8.86842C12.5332 8.71941 12.481 8.6002 12.4959 8.5108C12.5108 8.42139 12.563 8.31212 12.6524 8.18298C12.6524 8.18298 12.7467 8.03894 12.9355 7.75086C13.1342 7.47272 13.3577 7.13993 13.606 6.75251C13.8544 6.3651 14.0878 5.97271 14.3063 5.57536C14.5249 5.18794 14.659 4.87999 14.7087 4.65151H14.7236Z" fill="#8B7C7C"/>
</g>
<defs>
<clipPath id="clip0_1_1428">
<rect width="15.2583" height="15.2583" fill="white" transform="matrix(1 0 0 -1 0.388672 15.8867)"/>
</clipPath>
</defs>
</svg>
