<svg width="8" height="8" viewBox="0 0 8 8" fill="none" xmlns="http://www.w3.org/2000/svg">
<path d="M0.390625 7.63284L0.866909 5.89426C0.498438 5.25445 0.351327 4.51095 0.448384 3.77902C0.54544 3.0471 0.881239 2.36764 1.40373 1.84597C1.92622 1.3243 2.60621 0.989567 3.33828 0.893662C4.07036 0.797756 4.81363 0.946035 5.45286 1.31551C6.09209 1.68499 6.59159 2.25502 6.8739 2.93725C7.15622 3.61947 7.20559 4.37578 7.01436 5.08891C6.82314 5.80205 6.40199 6.43218 5.81622 6.88163C5.23044 7.33107 4.51276 7.57472 3.77443 7.57481C3.21436 7.57448 2.6633 7.43395 2.17148 7.16602L0.390625 7.63284ZM2.25159 6.56042L2.35379 6.62351C2.78353 6.878 3.27373 7.01242 3.77317 7.01273C4.39165 7.01285 4.99263 6.80743 5.48164 6.42876C5.97065 6.05009 6.31995 5.51965 6.47463 4.92082C6.6293 4.32199 6.58059 3.68874 6.33614 3.12062C6.09168 2.55249 5.66536 2.08172 5.12418 1.7823C4.58301 1.48289 3.95767 1.37181 3.34649 1.46653C2.7353 1.56125 2.17293 1.85641 1.74777 2.30559C1.32262 2.75477 1.05879 3.3325 0.997773 3.94797C0.936756 4.56343 1.08201 5.18172 1.41069 5.70564L1.47377 5.81099L1.19179 6.83988L2.25159 6.56042Z" fill="white"/>
<path fill-rule="evenodd" clip-rule="evenodd" d="M5.46359 5.01671C5.44277 4.98138 5.38662 4.96056 5.30272 4.91893C5.21882 4.87729 4.80689 4.67417 4.72992 4.64578C4.65296 4.61739 4.59745 4.60414 4.54067 4.68804C4.4839 4.77195 4.3243 4.96057 4.27572 5.01671C4.22715 5.07285 4.17731 5.07979 4.09404 5.03753C3.84815 4.93878 3.62126 4.79812 3.42346 4.62181C3.24018 4.45227 3.08307 4.25647 2.95727 4.04081C2.90807 3.95691 2.9516 3.91464 2.99386 3.86985C3.03613 3.82506 3.07776 3.77144 3.12003 3.72287C3.15472 3.68055 3.18299 3.63337 3.20393 3.58282C3.21497 3.55964 3.22012 3.5341 3.21891 3.50846C3.2177 3.48281 3.21017 3.45787 3.19699 3.43584C3.17617 3.3942 3.00774 2.98163 2.93835 2.81383C2.86896 2.64603 2.80146 2.67252 2.7491 2.66937C2.69674 2.66622 2.64438 2.66937 2.58887 2.66937C2.54575 2.67008 2.50326 2.67983 2.46415 2.69797C2.42503 2.71612 2.39015 2.74226 2.36176 2.77472C2.26769 2.86392 2.19307 2.97161 2.14259 3.09103C2.09211 3.21044 2.06686 3.339 2.06843 3.46864C2.06843 3.88121 2.36871 4.27989 2.41097 4.33604C2.45324 4.39218 3.00207 5.23876 3.84297 5.60149C3.9991 5.66886 4.15871 5.72782 4.32114 5.77813C4.49217 5.83007 4.67293 5.84151 4.84915 5.81156C5.01001 5.78759 5.34499 5.60843 5.4169 5.41287C5.48882 5.21731 5.4844 5.05141 5.46359 5.01671Z" fill="white"/>
</svg>
