<svg width="16" height="12" viewBox="0 0 16 12" fill="none" xmlns="http://www.w3.org/2000/svg">
<path d="M15.3615 1.81642C15.0834 1.48861 14.6711 1.25268 14.1248 1.10864C13.5784 0.964597 12.8234 0.892577 11.8599 0.892577H4.79692C3.80353 0.892577 3.03118 0.96708 2.47985 1.11609C1.92853 1.26509 1.51379 1.51841 1.23564 1.87602C0.967432 2.21377 0.810974 2.63596 0.766272 3.14258C0.72157 3.64921 0.699219 4.24524 0.699219 4.93067V7.583C0.699219 8.24856 0.748888 8.83466 0.848226 9.34128C0.957498 9.84791 1.15866 10.2701 1.4517 10.6078C1.74475 10.9456 2.15949 11.1989 2.69591 11.3678C3.23234 11.5367 3.93267 11.6211 4.79692 11.6211H11.8599C12.6943 11.6211 13.3623 11.559 13.864 11.4348C14.3657 11.3107 14.7705 11.1045 15.0784 10.8165C15.3864 10.5184 15.6099 10.1136 15.7489 9.60205C15.888 9.09046 15.9576 8.41744 15.9576 7.583V4.93067C15.9576 4.2055 15.9278 3.58712 15.8681 3.07553C15.8085 2.56394 15.6397 2.14424 15.3615 1.81642ZM10.489 6.61445L7.30024 8.29823C7.2605 8.3181 7.22077 8.333 7.18103 8.34294C7.1413 8.35287 7.10156 8.35784 7.06182 8.35784C7.02209 8.35784 6.97987 8.35039 6.93517 8.33549C6.89047 8.32058 6.84825 8.3032 6.80851 8.28333C6.73898 8.23366 6.68186 8.17158 6.63715 8.09707C6.59245 8.02257 6.5701 7.94062 6.5701 7.85121V4.52835C6.5701 4.43895 6.59245 4.35699 6.63715 4.28249C6.68186 4.20799 6.73898 4.1459 6.80851 4.09623C6.88798 4.0565 6.96994 4.03414 7.05437 4.02918C7.13881 4.02421 7.2158 4.0416 7.28534 4.08133L10.489 5.75021C10.5784 5.78995 10.6454 5.84955 10.6901 5.92902C10.7349 6.00849 10.7572 6.09293 10.7572 6.18233C10.7572 6.27174 10.7349 6.35617 10.6901 6.43564C10.6454 6.51511 10.5784 6.57472 10.489 6.61445Z" fill="#8B7C7C"/>
</svg>
