<svg width="8" height="11" viewBox="0 0 8 11" fill="none" xmlns="http://www.w3.org/2000/svg">
<path d="M8 5.5C8 5.4244 7.98582 5.3488 7.95745 5.2732C7.92908 5.19759 7.88652 5.12829 7.82979 5.06529L3.42128 0.170103C3.31915 0.0567006 3.19149 -4.20373e-07 3.0383 -4.33766e-07C2.88511 -4.47158e-07 2.75745 0.0567006 2.65532 0.170103C2.55319 0.296105 2.50213 0.441008 2.50213 0.604811C2.50213 0.768614 2.55319 0.913516 2.65532 1.03952L6.67234 5.5L2.65532 9.96048C2.55319 10.0865 2.50213 10.2314 2.50213 10.3952C2.50213 10.559 2.55319 10.7039 2.65532 10.8299C2.75745 10.9433 2.88511 11 3.0383 11C3.19149 11 3.31915 10.9433 3.42128 10.8299L7.82979 5.93471C7.88652 5.87171 7.92908 5.80241 7.95745 5.7268C7.98582 5.6512 8 5.5756 8 5.5ZM7.86383 5.5C7.86383 5.3362 7.81277 5.19444 7.71064 5.07474C7.60851 4.95504 7.47801 4.89519 7.31915 4.89519L0.544681 4.89519C0.397164 4.89519 0.269504 4.95504 0.161703 5.07474C0.0539012 5.19444 4.43397e-07 5.3362 4.29077e-07 5.5C4.14757e-07 5.6638 0.0539011 5.80556 0.161703 5.92526C0.269504 6.04496 0.397163 6.10481 0.544681 6.10481L7.31915 6.10481C7.47801 6.10481 7.60851 6.04496 7.71064 5.92526C7.81277 5.80556 7.86383 5.6638 7.86383 5.5Z" fill="#DED6D6"/>
</svg>
