<svg width="24" height="29" viewBox="0 0 24 29" fill="none" xmlns="http://www.w3.org/2000/svg">
<path d="M23.377 14.6618C23.377 14.4676 23.3365 14.2734 23.2556 14.0793C23.1747 13.8851 23.0533 13.7071 22.8915 13.5453L10.3192 0.973009C10.028 0.681759 9.66393 0.536134 9.22706 0.536134C8.79018 0.536134 8.42612 0.681759 8.13487 0.973009C7.84362 1.29662 7.698 1.66877 7.698 2.08947C7.698 2.51016 7.84362 2.88231 8.13487 3.20593L19.5907 14.6618L8.13487 26.1176C7.84362 26.4412 7.698 26.8134 7.698 27.234C7.698 27.6547 7.84362 28.0269 8.13487 28.3505C8.42612 28.6418 8.79019 28.7874 9.22706 28.7874C9.66394 28.7874 10.028 28.6418 10.3192 28.3505L22.8915 15.7782C23.0533 15.6164 23.1747 15.4384 23.2556 15.2443C23.3365 15.0501 23.377 14.8559 23.377 14.6618ZM22.9886 14.6618C22.9886 14.2411 22.843 13.877 22.5517 13.5696C22.2605 13.2621 21.8883 13.1084 21.4353 13.1084L2.11571 13.1084C1.69501 13.1084 1.33095 13.2621 1.02352 13.5696C0.716089 13.877 0.562373 14.2411 0.562373 14.6618C0.562373 15.0825 0.716089 15.4465 1.02352 15.7539C1.33095 16.0614 1.69501 16.2151 2.11571 16.2151L21.4353 16.2151C21.8883 16.2151 22.2605 16.0614 22.5517 15.7539C22.843 15.4465 22.9886 15.0825 22.9886 14.6618Z" fill="#DED6D6"/>
</svg>
