<svg width="24" height="29" viewBox="0 0 24 29" fill="none" xmlns="http://www.w3.org/2000/svg">
<path d="M0.623047 14.1293C0.623047 14.3234 0.663498 14.5176 0.744401 14.7118C0.825304 14.9059 0.946658 15.0839 1.10846 15.2457L13.6808 27.818C13.972 28.1093 14.3361 28.2549 14.7729 28.2549C15.2098 28.2549 15.5739 28.1093 15.8651 27.818C16.1564 27.4944 16.302 27.1222 16.302 26.7015C16.302 26.2809 16.1564 25.9087 15.8651 25.5851L4.4093 14.1293L15.8651 2.67343C16.1564 2.34982 16.302 1.97766 16.302 1.55697C16.302 1.13627 16.1564 0.76412 15.8651 0.44051C15.5739 0.14926 15.2098 0.00363541 14.7729 0.00363541C14.3361 0.00363541 13.972 0.14926 13.6808 0.44051L1.10846 13.0128C0.946658 13.1746 0.825304 13.3526 0.744401 13.5468C0.663498 13.7409 0.623047 13.9351 0.623047 14.1293ZM1.01138 14.1293C1.01138 14.55 1.15701 14.914 1.44826 15.2214C1.73951 15.5289 2.11166 15.6826 2.56471 15.6826L21.8843 15.6826C22.305 15.6826 22.6691 15.5289 22.9765 15.2214C23.2839 14.914 23.4376 14.55 23.4376 14.1293C23.4376 13.7086 23.2839 13.3445 22.9765 13.0371C22.6691 12.7296 22.305 12.5759 21.8843 12.5759L2.56471 12.5759C2.11166 12.5759 1.73951 12.7296 1.44826 13.0371C1.15701 13.3445 1.01138 13.7086 1.01138 14.1293Z" fill="#DED6D6"/>
</svg>
