<svg width="268" height="95" viewBox="0 0 268 95" fill="none" xmlns="http://www.w3.org/2000/svg">
<g clip-path="url(#clip0_4057_1127)">
<path fill-rule="evenodd" clip-rule="evenodd" d="M267.542 3.3075C267.542 3.3075 262.568 2.71094 256.69 2.71094C250.963 2.71094 246.139 3.3075 246.139 3.3075V21.95H267.542V3.3075Z" fill="#E4003E"/>
<path fill-rule="evenodd" clip-rule="evenodd" d="M267.542 47.3037H246.139V66.2445C246.139 66.2445 252.169 66.8409 256.991 66.8409C261.815 66.8409 267.542 66.0953 267.542 66.0953V47.3037Z" fill="#E4003E"/>
<path fill-rule="evenodd" clip-rule="evenodd" d="M233.326 3.30859H206.949L188.56 26.127H179.969V3.30859H157.209V66.3946H179.969V42.6815H188.259L206.798 66.3946H234.985L207.401 32.8382L233.326 3.30859Z" fill="white"/>
<path fill-rule="evenodd" clip-rule="evenodd" d="M71.8969 3.30859H0V66.3946H23.0613V21.2054H48.8356V66.3946H71.8969V3.30859Z" fill="white"/>
<path fill-rule="evenodd" clip-rule="evenodd" d="M83.0503 20.0121L79.7344 3.30851C79.7344 3.30851 101.288 1.66797 114.703 1.66797C128.118 1.66797 144.246 3.30851 144.246 3.30851C144.246 3.30851 149.22 16.1345 149.22 34.1805C149.22 52.2262 144.095 66.3947 144.095 66.3947C144.095 66.3947 128.721 68.0351 114.552 68.0351C100.384 68.0351 79.7344 66.3947 79.7344 66.3947L83.0503 49.691C83.0503 49.691 97.5202 50.735 109.88 50.735C122.239 50.735 127.063 49.691 127.063 49.691C127.063 49.691 127.666 46.5591 127.967 42.9795H98.4245V26.8727H128.118C127.816 22.6967 127.213 20.1613 127.213 20.1613C127.213 20.1613 117.115 19.1173 108.523 19.1173C99.7811 18.9682 83.0503 20.0121 83.0503 20.0121Z" fill="white"/>
</g>
<path d="M5.73197 91.9944C4.7426 91.9944 3.84854 91.7811 3.04979 91.3545C2.26011 90.9279 1.63835 90.3425 1.18452 89.5982C0.739755 88.8448 0.517375 88.0007 0.517375 87.0658C0.517375 86.1309 0.739755 85.2913 1.18452 84.547C1.63835 83.7936 2.26011 83.2036 3.04979 82.777C3.84854 82.3504 4.7426 82.1371 5.73197 82.1371C6.72133 82.1371 7.61085 82.3504 8.40053 82.777C9.19021 83.2036 9.81197 83.7936 10.2658 84.547C10.7196 85.2913 10.9466 86.1309 10.9466 87.0658C10.9466 88.0007 10.7196 88.8448 10.2658 89.5982C9.81197 90.3425 9.19021 90.9279 8.40053 91.3545C7.61085 91.7811 6.72133 91.9944 5.73197 91.9944ZM5.73197 90.1155C6.29473 90.1155 6.80302 89.9885 7.25686 89.7343C7.7107 89.4711 8.06469 89.108 8.31884 88.6451C8.58207 88.1822 8.71368 87.6558 8.71368 87.0658C8.71368 86.4758 8.58207 85.9493 8.31884 85.4864C8.06469 85.0235 7.7107 84.665 7.25686 84.4108C6.80302 84.1476 6.29473 84.016 5.73197 84.016C5.16921 84.016 4.66091 84.1476 4.20707 84.4108C3.75324 84.665 3.3947 85.0235 3.13148 85.4864C2.87733 85.9493 2.75025 86.4758 2.75025 87.0658C2.75025 87.6558 2.87733 88.1822 3.13148 88.6451C3.3947 89.108 3.75324 89.4711 4.20707 89.7343C4.66091 89.9885 5.16921 90.1155 5.73197 90.1155ZM21.3321 82.3005V91.8311H19.1401V84.0977H14.8377V91.8311H12.6457V82.3005H21.3321ZM31.0741 90.0611V91.8311H23.6947V82.3005H30.8971V84.0704H25.8867V86.1399H30.3116V87.8554H25.8867V90.0611H31.0741ZM36.981 82.3005C37.8252 82.3005 38.5558 82.4412 39.173 82.7225C39.7993 83.0039 40.2804 83.4033 40.6163 83.9207C40.9521 84.438 41.12 85.0507 41.12 85.7587C41.12 86.4576 40.9521 87.0703 40.6163 87.5968C40.2804 88.1141 39.7993 88.5135 39.173 88.7949C38.5558 89.0672 37.8252 89.2033 36.981 89.2033H35.0613V91.8311H32.8556V82.3005H36.981ZM36.8585 87.4061C37.5211 87.4061 38.0248 87.2654 38.3698 86.9841C38.7147 86.6936 38.8871 86.2852 38.8871 85.7587C38.8871 85.2232 38.7147 84.8147 38.3698 84.5333C38.0248 84.2429 37.5211 84.0977 36.8585 84.0977H35.0613V87.4061H36.8585ZM48.5499 89.7888H44.125L43.2809 91.8311H41.0208L45.2687 82.3005H47.4471L51.7086 91.8311H49.3941L48.5499 89.7888ZM47.8556 88.1141L46.3443 84.4653L44.833 88.1141H47.8556ZM59.7779 84.0977H56.7282V91.8311H54.5497V84.0977H51.5136V82.3005H59.7779V84.0977ZM65.5773 91.9944C64.588 91.9944 63.6939 91.7811 62.8952 91.3545C62.1055 90.9279 61.4837 90.3425 61.0299 89.5982C60.5851 88.8448 60.3628 88.0007 60.3628 87.0658C60.3628 86.1309 60.5851 85.2913 61.0299 84.547C61.4837 83.7936 62.1055 83.2036 62.8952 82.777C63.6939 82.3504 64.588 82.1371 65.5773 82.1371C66.5667 82.1371 67.4562 82.3504 68.2459 82.777C69.0356 83.2036 69.6573 83.7936 70.1112 84.547C70.565 85.2913 70.7919 86.1309 70.7919 87.0658C70.7919 88.0007 70.565 88.8448 70.1112 89.5982C69.6573 90.3425 69.0356 90.9279 68.2459 91.3545C67.4562 91.7811 66.5667 91.9944 65.5773 91.9944ZM65.5773 90.1155C66.1401 90.1155 66.6484 89.9885 67.1022 89.7343C67.5561 89.4711 67.9101 89.108 68.1642 88.6451C68.4274 88.1822 68.5591 87.6558 68.5591 87.0658C68.5591 86.4758 68.4274 85.9493 68.1642 85.4864C67.9101 85.0235 67.5561 84.665 67.1022 84.4108C66.6484 84.1476 66.1401 84.016 65.5773 84.016C65.0146 84.016 64.5063 84.1476 64.0525 84.4108C63.5986 84.665 63.2401 85.0235 62.9769 85.4864C62.7227 85.9493 62.5956 86.4758 62.5956 87.0658C62.5956 87.6558 62.7227 88.1822 62.9769 88.6451C63.2401 89.108 63.5986 89.4711 64.0525 89.7343C64.5063 89.9885 65.0146 90.1155 65.5773 90.1155ZM76.6164 82.3005C77.4606 82.3005 78.1913 82.4412 78.8085 82.7225C79.4348 83.0039 79.9158 83.4033 80.2517 83.9207C80.5875 84.438 80.7554 85.0507 80.7554 85.7587C80.7554 86.4576 80.5875 87.0703 80.2517 87.5968C79.9158 88.1141 79.4348 88.5135 78.8085 88.7949C78.1913 89.0672 77.4606 89.2033 76.6164 89.2033H74.6967V91.8311H72.4911V82.3005H76.6164ZM76.4939 87.4061C77.1565 87.4061 77.6603 87.2654 78.0052 86.9841C78.3501 86.6936 78.5226 86.2852 78.5226 85.7587C78.5226 85.2232 78.3501 84.8147 78.0052 84.5333C77.6603 84.2429 77.1565 84.0977 76.4939 84.0977H74.6967V87.4061H76.4939ZM94.6951 82.3005V91.8311H92.5167V84.0977H89.249L89.181 86.0855C89.1356 87.4379 89.0267 88.5362 88.8542 89.3803C88.6817 90.2154 88.3913 90.8598 87.9828 91.3137C87.5835 91.7584 87.0207 91.9808 86.2946 91.9808C85.995 91.9808 85.632 91.9309 85.2054 91.8311L85.3415 89.9658C85.4595 90.0021 85.5911 90.0202 85.7363 90.0202C86.2628 90.0202 86.6304 89.7116 86.8392 89.0944C87.0479 88.4681 87.1795 87.4924 87.234 86.1672L87.3702 82.3005H94.6951ZM101.623 91.9944C100.633 91.9944 99.7394 91.7811 98.9407 91.3545C98.151 90.9279 97.5292 90.3425 97.0754 89.5982C96.6306 88.8448 96.4083 88.0007 96.4083 87.0658C96.4083 86.1309 96.6306 85.2913 97.0754 84.547C97.5292 83.7936 98.151 83.2036 98.9407 82.777C99.7394 82.3504 100.633 82.1371 101.623 82.1371C102.612 82.1371 103.502 82.3504 104.291 82.777C105.081 83.2036 105.703 83.7936 106.157 84.547C106.611 85.2913 106.837 86.1309 106.837 87.0658C106.837 88.0007 106.611 88.8448 106.157 89.5982C105.703 90.3425 105.081 90.9279 104.291 91.3545C103.502 91.7811 102.612 91.9944 101.623 91.9944ZM101.623 90.1155C102.186 90.1155 102.694 89.9885 103.148 89.7343C103.602 89.4711 103.956 89.108 104.21 88.6451C104.473 88.1822 104.605 87.6558 104.605 87.0658C104.605 86.4758 104.473 85.9493 104.21 85.4864C103.956 85.0235 103.602 84.665 103.148 84.4108C102.694 84.1476 102.186 84.016 101.623 84.016C101.06 84.016 100.552 84.1476 100.098 84.4108C99.6441 84.665 99.2856 85.0235 99.0224 85.4864C98.7682 85.9493 98.6411 86.4758 98.6411 87.0658C98.6411 87.6558 98.7682 88.1822 99.0224 88.6451C99.2856 89.108 99.6441 89.4711 100.098 89.7343C100.552 89.9885 101.06 90.1155 101.623 90.1155ZM115.249 84.0977H110.715L110.729 91.8311H108.537V82.3005H115.262L115.249 84.0977ZM116.607 82.3005H118.799V88.509L123.347 82.3005H125.416V91.8311H123.238V85.6362L118.69 91.8311H116.607V82.3005ZM132.296 91.9944C131.325 91.9944 130.444 91.7857 129.654 91.3681C128.874 90.9415 128.257 90.3561 127.803 89.6118C127.358 88.8584 127.136 88.0097 127.136 87.0658C127.136 86.1218 127.358 85.2776 127.803 84.5333C128.257 83.78 128.874 83.1945 129.654 82.777C130.444 82.3504 131.329 82.1371 132.309 82.1371C133.135 82.1371 133.88 82.2823 134.542 82.5728C135.214 82.8632 135.777 83.2808 136.231 83.8254L134.815 85.1324C134.17 84.3881 133.371 84.016 132.418 84.016C131.828 84.016 131.302 84.1476 130.839 84.4108C130.376 84.665 130.013 85.0235 129.75 85.4864C129.496 85.9493 129.369 86.4758 129.369 87.0658C129.369 87.6558 129.496 88.1822 129.75 88.6451C130.013 89.108 130.376 89.4711 130.839 89.7343C131.302 89.9885 131.828 90.1155 132.418 90.1155C133.371 90.1155 134.17 89.7389 134.815 88.9855L136.231 90.2925C135.777 90.8462 135.214 91.2683 134.542 91.5588C133.871 91.8492 133.122 91.9944 132.296 91.9944ZM144.859 84.0977H141.809V91.8311H139.631V84.0977H136.595V82.3005H144.859V84.0977ZM146.244 82.3005H148.436V88.509L152.984 82.3005H155.053V91.8311H152.875V85.6362L148.327 91.8311H146.244V82.3005ZM164.989 82.3005V91.8311H162.81V88.4C161.984 88.6996 161.217 88.8493 160.509 88.8493C159.23 88.8493 158.249 88.5453 157.569 87.9371C156.888 87.3199 156.547 86.4349 156.547 85.2822V82.3005H158.726V85.0371C158.726 85.6906 158.898 86.1853 159.243 86.5212C159.597 86.8479 160.106 87.0113 160.768 87.0113C161.494 87.0113 162.175 86.8706 162.81 86.5892V82.3005H164.989ZM174.738 90.0611V91.8311H167.358V82.3005H174.561V84.0704H169.55V86.1399H173.975V87.8554H169.55V90.0611H174.738ZM180.999 91.9944C180.028 91.9944 179.147 91.7857 178.358 91.3681C177.577 90.9415 176.96 90.3561 176.506 89.6118C176.061 88.8584 175.839 88.0097 175.839 87.0658C175.839 86.1218 176.061 85.2776 176.506 84.5333C176.96 83.78 177.577 83.1945 178.358 82.777C179.147 82.3504 180.032 82.1371 181.013 82.1371C181.839 82.1371 182.583 82.2823 183.246 82.5728C183.917 82.8632 184.48 83.2808 184.934 83.8254L183.518 85.1324C182.873 84.3881 182.075 84.016 181.122 84.016C180.532 84.016 180.005 84.1476 179.542 84.4108C179.079 84.665 178.716 85.0235 178.453 85.4864C178.199 85.9493 178.072 86.4758 178.072 87.0658C178.072 87.6558 178.199 88.1822 178.453 88.6451C178.716 89.108 179.079 89.4711 179.542 89.7343C180.005 89.9885 180.532 90.1155 181.122 90.1155C182.075 90.1155 182.873 89.7389 183.518 88.9855L184.934 90.2925C184.48 90.8462 183.917 91.2683 183.246 91.5588C182.574 91.8492 181.825 91.9944 180.999 91.9944ZM190.061 87.9916H188.536V91.8311H186.344V82.3005H188.536V86.1535H190.116L192.621 82.3005H194.949L191.831 86.9024L195.044 91.8311H192.539L190.061 87.9916ZM196.078 82.3005H198.27V88.509L202.817 82.3005H204.887V91.8311H202.708V85.6362L198.161 91.8311H196.078V82.3005ZM208.975 82.3005L210.949 85.1869L212.923 82.3005H215.51L212.338 86.8615L215.769 91.8311H213.168L210.949 88.6723L208.757 91.8311H206.211L209.615 86.9568L206.429 82.3005H208.975ZM229.546 82.3005L225.489 89.8432C225.098 90.5694 224.626 91.1185 224.073 91.4907C223.528 91.8628 222.933 92.0489 222.289 92.0489C221.79 92.0489 221.272 91.94 220.737 91.7221L221.268 90.0475C221.649 90.1655 221.967 90.2245 222.221 90.2245C222.493 90.2245 222.738 90.1609 222.956 90.0339C223.174 89.8977 223.374 89.6889 223.555 89.4076L223.637 89.2986L219.879 82.3005H222.235L224.767 87.4198L227.381 82.3005H229.546ZM234.981 91.9944C234.01 91.9944 233.129 91.7857 232.34 91.3681C231.559 90.9415 230.942 90.3561 230.488 89.6118C230.043 88.8584 229.821 88.0097 229.821 87.0658C229.821 86.1218 230.043 85.2776 230.488 84.5333C230.942 83.78 231.559 83.1945 232.34 82.777C233.129 82.3504 234.014 82.1371 234.995 82.1371C235.821 82.1371 236.565 82.2823 237.227 82.5728C237.899 82.8632 238.462 83.2808 238.916 83.8254L237.5 85.1324C236.855 84.3881 236.057 84.016 235.103 84.016C234.514 84.016 233.987 84.1476 233.524 84.4108C233.061 84.665 232.698 85.0235 232.435 85.4864C232.181 85.9493 232.054 86.4758 232.054 87.0658C232.054 87.6558 232.181 88.1822 232.435 88.6451C232.698 89.108 233.061 89.4711 233.524 89.7343C233.987 89.9885 234.514 90.1155 235.103 90.1155C236.057 90.1155 236.855 89.7389 237.5 88.9855L238.916 90.2925C238.462 90.8462 237.899 91.2683 237.227 91.5588C236.556 91.8492 235.807 91.9944 234.981 91.9944ZM248.623 82.3005V91.8311H246.445V84.0977H243.177L243.109 86.0855C243.064 87.4379 242.955 88.5362 242.782 89.3803C242.61 90.2154 242.319 90.8598 241.911 91.3137C241.511 91.7584 240.949 91.9808 240.223 91.9808C239.923 91.9808 239.56 91.9309 239.133 91.8311L239.27 89.9658C239.388 90.0021 239.519 90.0202 239.664 90.0202C240.191 90.0202 240.558 89.7116 240.767 89.0944C240.976 88.4681 241.108 87.4924 241.162 86.1672L241.298 82.3005H248.623ZM259.608 82.3005L255.551 89.8432C255.161 90.5694 254.689 91.1185 254.135 91.4907C253.59 91.8628 252.996 92.0489 252.351 92.0489C251.852 92.0489 251.335 91.94 250.799 91.7221L251.33 90.0475C251.711 90.1655 252.029 90.2245 252.283 90.2245C252.556 90.2245 252.801 90.1609 253.018 90.0339C253.236 89.8977 253.436 89.6889 253.618 89.4076L253.699 89.2986L249.941 82.3005H252.297L254.829 87.4198L257.443 82.3005H259.608ZM267.369 84.0977H262.835L262.848 91.8311H260.656V82.3005H267.382L267.369 84.0977Z" fill="white"/>
<defs>
<clipPath id="clip0_4057_1127">
<rect width="267.542" height="67.9146" fill="white" transform="translate(0 0.916016)"/>
</clipPath>
</defs>
</svg>
