<svg width="22" height="23" viewBox="0 0 22 23" fill="none" xmlns="http://www.w3.org/2000/svg">
<path d="M11 22.9404C17.0751 22.9404 22 18.0156 22 11.9404C22 5.8653 17.0751 0.94043 11 0.94043C4.92487 0.94043 0 5.8653 0 11.9404C0 18.0156 4.92487 22.9404 11 22.9404Z" fill="#FC3F1D"/>
<path d="M12.7255 18.8154H15.1238V5.06543H11.633C8.12231 5.06543 6.28084 6.86255 6.28084 9.51734C6.28084 11.8091 7.47469 13.1013 9.58944 14.5048L10.8744 15.3528L9.22506 13.9696L5.95703 18.8154H8.55716L12.0483 13.6062L10.8342 12.7984C9.36703 11.8091 8.64859 11.0419 8.64859 9.37605C8.64859 7.91237 9.68088 6.92305 11.6433 6.92305H12.7158V18.8154H12.7262H12.7255Z" fill="white"/>
</svg>
