<svg width="18" height="21" viewBox="0 0 18 21" fill="none" xmlns="http://www.w3.org/2000/svg">
<path d="M9 0.31543C4.44352 0.31543 0.75 4.00895 0.75 8.56543C0.75 10.8428 1.67276 12.9049 3.16519 14.3978C4.65803 15.8914 8.175 18.0529 8.38125 20.3217C8.41217 20.6619 8.65845 20.9404 9 20.9404C9.34155 20.9404 9.58783 20.6619 9.61875 20.3217C9.825 18.0529 13.342 15.8914 14.8348 14.3978C16.3272 12.9049 17.25 10.8428 17.25 8.56543C17.25 4.00895 13.5565 0.31543 9 0.31543Z" fill="#FF4433"/>
<path d="M9.00078 11.4527C10.5955 11.4527 11.8883 10.1599 11.8883 8.56523C11.8883 6.97051 10.5955 5.67773 9.00078 5.67773C7.40607 5.67773 6.11328 6.97051 6.11328 8.56523C6.11328 10.1599 7.40607 11.4527 9.00078 11.4527Z" fill="white"/>
</svg>
