<svg width="120" height="106" viewBox="0 0 120 106" fill="none" xmlns="http://www.w3.org/2000/svg">
<path d="M9.47395 0H110.46C117.725 0 122.292 7.86156 118.659 14.1712L68.218 101.268C64.5855 107.577 55.452 107.577 51.8194 101.268L1.27469 14.1712C-2.35789 7.86156 2.20878 0 9.47395 0Z" fill="#2E2828"/>
<path d="M9.47331 2.68945H110.459C115.649 2.68945 118.97 8.27536 116.375 12.8264L65.8304 99.923C63.2356 104.371 56.6968 104.371 54.102 99.923L3.66117 12.8264C1.06648 8.27536 4.28393 2.68945 9.47331 2.68945Z" fill="white"/>
<path d="M85.7591 54.8233V8.06836H83.0605V59.5814L85.7591 54.8233Z" fill="#E1000A"/>
<path d="M60.0197 39.928L74.5501 14.7921C74.7575 14.3783 74.8613 13.9646 74.8613 13.4472V8.06836H45.0742V13.4472C45.0742 13.9646 45.1781 14.3783 45.3854 14.7921L60.0197 39.928Z" fill="#E1000A"/>
<path d="M80.3627 64.2364V8.06836H77.5605V68.8912L80.3627 64.2364Z" fill="#E1000A"/>
<path d="M110.459 8.06836H93.8535V40.7554L111.601 10.0337C112.12 9.2062 111.498 8.06836 110.459 8.06836Z" fill="#E1000A"/>
<path d="M91.1553 45.5138V8.06836H88.457V50.1686L91.1553 45.5138Z" fill="#E1000A"/>
<path d="M26.1843 8.06836H9.57818C8.54031 8.06836 7.91758 9.2062 8.43653 10.1373L26.1843 40.8588V8.06836Z" fill="#E1000A"/>
<path d="M74.8613 41.1689L61.1613 64.857C60.6424 65.7878 59.2931 65.7878 58.7742 64.857L45.0742 41.1689V73.5456L58.7742 97.2333C59.2931 98.1645 60.6424 98.1645 61.1613 97.2333L74.8613 73.5456V41.1689Z" fill="#E1000A"/>
<path d="M42.3763 68.8912V8.06836H39.6777V64.2364L42.3763 68.8912Z" fill="#E1000A"/>
<path d="M31.5813 50.1686V8.06836H28.8828V45.5138L31.5813 50.1686Z" fill="#E1000A"/>
<path d="M36.9779 59.5814V8.06836H34.2793V54.8233L36.9779 59.5814Z" fill="#E1000A"/>
</svg>
