<svg width="202" height="48" viewBox="0 0 202 48" fill="none" xmlns="http://www.w3.org/2000/svg">
<path d="M120.215 7.625H201.04L175.462 22.4937L185.693 38.125H120.215V7.625Z" fill="#ED7600"/>
<path d="M91 38.126L-0.000778198 38.1259L25.5768 23.2572L15.3457 7.62591L91 7.62598L91 38.126Z" fill="#ED7600"/>
<path d="M143.524 14.8192L141.182 28.1951C140.818 30.2052 140.134 31.7235 139.129 32.75C138.017 33.8834 136.435 34.45 134.382 34.45L135.087 30.4084C136.071 30.4084 136.702 29.6706 136.98 28.1951L139.995 11.1624H150.324L146.282 34.001H141.759L145.127 14.8192H143.524ZM156.087 34.001H147.619L151.66 11.1624H160.129L159.551 14.4343H155.606L154.676 19.6627H158.461L157.883 22.9346H154.098L152.719 30.7292H156.664L156.087 34.001ZM167.439 14.4343L163.975 34.001H159.452L162.916 14.4343H159.869L160.446 11.1624H171.064L170.486 14.4343H167.439Z" fill="white"/>
<path d="M34.5323 34.001H30.0095L34.0512 11.1624H38.574L37.0985 19.4382H38.7023L40.1778 11.1624H44.7006L40.659 34.001H36.1362L38.0608 23.0949H36.4569L34.5323 34.001ZM41.1439 34.001L48.5856 11.1624H54.584L53.2688 34.001H48.5536L49.1309 27.7781H46.9818L45.1855 34.001H41.1439ZM47.9441 24.5063H49.4196L50.4782 15.1399H50.3499L47.9441 24.5063ZM57.9558 34.001H53.882L57.9237 11.1624H64.8843L64.1145 26.4951L69.1505 11.1624H75.4696L71.4279 34.001H67.3542L70.3052 17.257L70.2411 17.1928L64.5315 34.001H60.6502L60.9389 17.5136L57.9558 34.001Z" fill="white"/>
<path d="M85.03 9.89529L103.421 5.51953L98.1573 30.0619H87.1227L89.7862 17.759L84.7129 18.9639L85.03 9.89529Z" fill="#E1000A"/>
<path d="M127.741 0.791385L103.708 31.2518L98.1609 35.7351H87.1267L80.4614 37.1969L81.407 29.6321L83.0562 22.0489L79.043 23.4857V6.93777L102.111 0L127.741 0.791385ZM85.0333 9.89554L84.7166 18.9637L89.7899 17.7586L87.1267 30.0615H98.1609L103.424 5.51938L85.0333 9.89554Z" fill="#2E2828"/>
<path d="M109.065 6.28027H127.582L125.934 14.0805H117.182L116.231 18.6466H116.611C119.655 18.6466 122.002 19.323 123.651 20.6759C125.342 21.9865 126.187 23.8467 126.187 26.2566C126.187 27.1021 126.103 27.9266 125.934 28.7298C124.961 33.3381 122.213 36.7204 117.689 38.8765C113.208 41.075 92.7983 42.2546 85.3574 42.2546L86.3087 34.2006C90.5787 34.2429 108.367 33.8455 110.777 33.169C113.187 32.5349 114.582 31.2665 114.962 29.364C115.216 28.1802 114.54 27.2501 112.933 26.5737C111.327 25.8972 109.022 25.559 106.021 25.559H104.943L109.065 6.28027Z" fill="#E1000A"/>
<path d="M126.189 26.2567C126.189 23.8469 125.343 21.9861 123.652 20.6755C122.003 19.3227 119.657 18.6467 116.613 18.6467H116.232L117.183 14.0803H125.935L127.584 6.28004H109.066L104.944 25.5586H106.023C109.024 25.5586 111.328 25.8971 112.935 26.5735C114.541 27.2499 115.218 28.1803 114.964 29.3641L114.881 29.7131C114.406 31.4224 113.038 32.5741 110.778 33.1686C108.368 33.8451 90.5802 34.2424 86.3102 34.2001L85.3591 42.2543C92.8 42.2543 113.21 41.0748 117.691 38.8764C122.074 36.7876 124.789 33.5481 125.839 29.1582L125.935 28.7297C126.083 28.0268 126.167 27.3077 126.185 26.5725L126.189 26.2567ZM131.862 26.2567C131.862 27.4831 131.74 28.6999 131.487 29.8988L131.487 29.9006C130.127 36.3421 126.158 41.106 120.189 43.9691C120.179 43.974 120.17 43.9791 120.16 43.9839C120.15 43.9884 120.141 43.9934 120.132 43.9978L120.131 43.9968C118.139 44.9578 115.239 45.5321 112.679 45.9361C109.837 46.3846 106.488 46.7516 103.123 47.0423C96.4055 47.6228 89.2762 47.9279 85.3591 47.9279H79.0391L81.4031 30.5784L86.3665 28.5275C88.3786 28.5474 93.797 28.4613 99.0499 28.2837C100.216 28.2442 101.363 28.1991 102.453 28.1516L99.3962 24.3729L103.518 5.09342L109.066 0.606445H133.884L133.135 7.45372L131.487 15.254L128.631 17.5672C130.847 19.9577 131.862 23.007 131.862 26.2567Z" fill="#2E2828"/>
<path d="M125.847 7.41211L118.755 7.88491L114.973 8.35771L123.483 9.30331L119.228 10.7217L123.956 11.6673L121.119 12.6129L124.429 13.0857L125.847 7.41211Z" fill="#EE666C"/>
<path d="M102.677 6.46484L95.5854 8.35604L90.8574 9.77444L99.8406 9.30164L94.6398 11.6656H100.313L98.4222 13.5568L100.786 13.084L102.677 6.46484Z" fill="#EE666C"/>
</svg>
