<svg width="144" height="49" viewBox="0 0 144 49" fill="none" xmlns="http://www.w3.org/2000/svg">
<path d="M47.8922 0C39.9402 0 33.4766 6.44192 33.4766 14.3672C33.4766 22.2926 39.9402 28.7345 47.8922 28.7345C55.8442 28.7345 62.3077 22.2926 62.3077 14.3672C62.3077 6.44192 55.8442 0 47.8922 0ZM47.8922 21.0212C44.2351 21.0212 41.216 18.0545 41.216 14.3672C41.216 10.7225 44.1926 7.71347 47.8922 7.71347C51.5493 7.71347 54.5685 10.6802 54.5685 14.3672C54.5685 18.0545 51.5917 21.0212 47.8922 21.0212Z" fill="#2E2828"/>
<path d="M87.3114 0.550781H65.1134C64.8157 0.550781 64.5605 0.805118 64.5605 1.1018V7.75558C64.5605 8.05226 64.8157 8.3066 65.1134 8.3066H71.7471C72.0448 8.3066 72.2999 8.56093 72.2999 8.85748V27.6748C72.2999 27.9715 72.5551 28.2257 72.8528 28.2257H73.4056V8.85748C73.4056 8.56093 73.6607 8.3066 73.9583 8.3066C74.256 8.3066 74.5111 8.56093 74.5111 8.85748V28.2257H75.6168V8.85748C75.6168 8.56093 75.8719 8.3066 76.1696 8.3066C76.4673 8.3066 76.7225 8.56093 76.7225 8.85748V28.2257H77.8275V8.85748C77.8275 8.56093 78.083 8.3066 78.3807 8.3066C78.6784 8.3066 78.9339 8.56093 78.9339 8.85748V28.2257H79.4858C79.7835 28.2257 80.0391 27.9715 80.0391 27.6748V8.85748C80.0391 8.56093 80.2946 8.3066 80.5923 8.3066H87.2679C87.5656 8.3066 87.8211 8.05226 87.8211 7.75558V1.1018C87.8633 0.805118 87.6091 0.550781 87.3114 0.550781Z" fill="#2E2828"/>
<path d="M143.442 0.550781H135.574C135.192 0.550781 134.809 0.762774 134.597 1.1018L131.365 6.65367L128.134 1.1018C127.92 0.762774 127.58 0.550781 127.155 0.550781H126.602L130.769 7.75558L135.235 15.5114L142.591 28.2257H143.399C143.612 28.2257 143.74 28.0139 143.654 27.802L135.916 14.4095L143.696 0.974632C143.782 0.805119 143.654 0.550781 143.442 0.550781Z" fill="#2E2828"/>
<path d="M130.132 8.85748L125.326 0.550781H124.008L129.494 10.0019L133.958 17.7152L140.04 28.2257H141.316L134.597 16.6133L130.132 8.85748Z" fill="#2E2828"/>
<path d="M128.857 11.1038L122.733 0.550781H121.457L128.218 12.2057L132.684 19.919L137.489 28.2257H138.765L133.321 18.8171L128.857 11.1038Z" fill="#2E2828"/>
<path d="M127.58 13.3081L120.182 0.59375H119.373C119.161 0.59375 119.033 0.805607 119.119 1.0176L126.899 14.4523L119.161 27.8448C119.033 28.0143 119.203 28.2687 119.416 28.2687H127.283C127.666 28.2687 128.048 28.0568 128.261 27.7177L131.45 22.2081L134.639 27.7177C134.851 28.0568 135.193 28.2687 135.618 28.2687H136.256L132.088 21.1062L127.58 13.3081Z" fill="#2E2828"/>
<path d="M106.193 7.20499L102.195 0.296872C101.982 -0.0846346 101.43 -0.0846346 101.216 0.296872L101.09 0.551076L105.554 8.30689L117.078 28.2261H117.886C118.099 28.2261 118.227 28.0142 118.141 27.8023L106.193 7.20499Z" fill="#2E2828"/>
<path d="M100.45 1.69531L99.8125 2.79722L104.278 10.5106L114.526 28.226H115.801L104.915 9.40865L100.45 1.69531Z" fill="#2E2828"/>
<path d="M99.1752 3.89941L98.4941 5.00145L103.002 12.7148L111.974 28.2263H113.251L103.639 11.6129L99.1752 3.89941Z" fill="#2E2828"/>
<path d="M97.8579 6.10254L85.2706 27.8018C85.1429 27.9713 85.3128 28.2256 85.5262 28.2256H93.3925C93.7759 28.2256 94.1578 28.0136 94.3712 27.6746L95.9861 24.9198H107.468L109.084 27.6746C109.297 28.0136 109.636 28.2256 110.062 28.2256H110.701L97.8579 6.10254ZM99.1764 19.3679L101.728 14.9603L104.279 19.3679H99.1764Z" fill="#2E2828"/>
<path d="M7.36543 0.550781H6.25977V28.1834H7.36543V0.550781Z" fill="#2E2828"/>
<path d="M5.15449 0.550781H4.04883V28.1834H5.15449V0.550781Z" fill="#2E2828"/>
<path d="M2.39072 0.550781H2.94356V28.1834H2.39072C2.09303 28.1834 1.83789 27.9292 1.83789 27.6325V1.1018C1.83789 0.805118 2.09303 0.550781 2.39072 0.550781Z" fill="#2E2828"/>
<path d="M15.7006 13.6048L22.9296 1.14463C23.1422 0.805608 23.4824 0.59375 23.9076 0.59375H29.0531C29.3507 0.59375 29.6059 0.847952 29.6059 1.14463V27.6753C29.6059 27.972 29.3507 28.2263 29.0531 28.2263H28.5002H25.1834H24.0778H23.525H22.9722H22.4193C22.1216 28.2263 21.8665 27.972 21.8665 27.6753V14.622C21.8665 14.4948 21.6964 14.41 21.6114 14.5371L16.2533 23.8186C16.0408 24.2001 15.4879 24.2001 15.2753 23.8186L9.91731 14.5371C9.83236 14.41 9.66217 14.4523 9.66217 14.622V27.6753C9.66217 27.972 9.40703 28.2263 9.10934 28.2263H8.55664V1.14463L15.7006 13.6048Z" fill="#2E2828"/>
<path d="M4.85169 46.3728C4.04307 46.3728 3.31456 46.1973 2.66614 45.8464C2.01772 45.4879 1.50662 44.9959 1.13282 44.3703C0.766658 43.7448 0.583575 43.0468 0.583575 42.2763C0.583575 41.5058 0.766658 40.8078 1.13282 40.1823C1.50662 39.5568 2.01772 39.0686 2.66614 38.7177C3.31456 38.3591 4.04307 38.1799 4.85169 38.1799C5.65267 38.1799 6.37737 38.3591 7.02579 38.7177C7.67421 39.0686 8.1815 39.5568 8.54766 40.1823C8.91383 40.8002 9.09691 41.4982 9.09691 42.2763C9.09691 43.0544 8.91383 43.7562 8.54766 44.3818C8.1815 44.9997 7.67421 45.4879 7.02579 45.8464C6.37737 46.1973 5.65267 46.3728 4.85169 46.3728ZM4.85169 45.3544C5.43907 45.3544 5.96544 45.2209 6.43077 44.9539C6.90373 44.6869 7.27371 44.3207 7.54071 43.8554C7.81533 43.3824 7.95264 42.8561 7.95264 42.2763C7.95264 41.6966 7.81533 41.174 7.54071 40.7087C7.27371 40.2357 6.90373 39.8657 6.43077 39.5987C5.96544 39.3317 5.43907 39.1982 4.85169 39.1982C4.2643 39.1982 3.7303 39.3317 3.24971 39.5987C2.77675 39.8657 2.40296 40.2357 2.12833 40.7087C1.86134 41.174 1.72784 41.6966 1.72784 42.2763C1.72784 42.8561 1.86134 43.3824 2.12833 43.8554C2.40296 44.3207 2.77675 44.6869 3.24971 44.9539C3.7303 45.2209 4.2643 45.3544 4.85169 45.3544ZM19.7804 42.2649C19.7804 43.3252 19.4104 44.1567 18.6705 44.7594C17.9305 45.362 16.8854 45.6862 15.5352 45.732V46.5788H14.471V45.732C13.1208 45.6786 12.0719 45.3506 11.3243 44.7479C10.5843 44.1453 10.2144 43.3176 10.2144 42.2649C10.2144 41.2045 10.5843 40.373 11.3243 39.7704C12.0719 39.1677 13.1208 38.8397 14.471 38.7863V37.9739H15.5352V38.7863C16.8778 38.8397 17.9191 39.1715 18.659 39.7818C19.4066 40.3845 19.7804 41.2122 19.7804 42.2649ZM15.5352 44.8395C16.5574 44.7784 17.3355 44.5305 17.8695 44.0957C18.4111 43.6533 18.6819 43.0392 18.6819 42.2534C18.6819 41.483 18.4073 40.8803 17.858 40.4455C17.3164 40.003 16.5421 39.7513 15.5352 39.6903V44.8395ZM11.3243 42.2649C11.3243 43.043 11.5951 43.6533 12.1367 44.0957C12.686 44.5305 13.4641 44.7784 14.471 44.8395V39.6903C13.4488 39.7513 12.6669 39.9992 12.1253 40.4341C11.5913 40.8689 11.3243 41.4791 11.3243 42.2649ZM21.5401 38.2714H22.6729V44.4504L27.4102 38.2714H28.4629V46.2812H27.3415V40.1137L22.5928 46.2812H21.5401V38.2714ZM38.9242 45.2857V48.1006H37.8601V46.2812H30.9602V38.2714H32.093V45.2857H36.5556V38.2714H37.6884V45.2857H38.9242ZM40.4473 38.2714H41.5801V44.4504L46.3174 38.2714H47.3701V46.2812H46.2487V40.1137L41.5 46.2812H40.4473V38.2714ZM55.0738 44.2788H50.8171L49.936 46.2812H48.7574L52.3847 38.2714H53.5176L57.1563 46.2812H55.9548L55.0738 44.2788ZM54.6733 43.3634L52.9454 39.4385L51.2176 43.3634H54.6733ZM65.1175 38.2714V46.2812H63.9961V39.2669H60.4489L60.3688 41.6126C60.3306 42.7188 60.2391 43.6151 60.0941 44.3017C59.9568 44.9882 59.7356 45.507 59.4305 45.8579C59.1253 46.2012 58.7134 46.3728 58.1947 46.3728C57.9582 46.3728 57.7179 46.3423 57.4738 46.2812L57.5539 45.2629C57.6759 45.2934 57.798 45.3086 57.92 45.3086C58.248 45.3086 58.5112 45.1789 58.7096 44.9196C58.9079 44.6526 59.0567 44.2559 59.1558 43.7295C59.255 43.2032 59.3198 42.509 59.3504 41.647L59.4762 38.2714H65.1175ZM71.1253 41.0634C72.0788 41.0634 72.8074 41.277 73.3108 41.7042C73.8219 42.1314 74.0775 42.7607 74.0775 43.5922C74.0775 44.4695 73.8029 45.137 73.2536 45.5947C72.712 46.0524 71.9339 46.2812 70.9193 46.2812H67.6124V38.2714H68.7452V41.0634H71.1253ZM70.8736 45.3773C71.5372 45.3773 72.0445 45.2285 72.3954 44.931C72.754 44.6259 72.9332 44.1872 72.9332 43.6151C72.9332 42.5166 72.2467 41.9674 70.8736 41.9674H68.7452V45.3773H70.8736ZM82.6582 38.2714V46.2812H81.514V42.7111H76.914V46.2812H75.7698V38.2714H76.914V41.7156H81.514V38.2714H82.6582ZM88.6692 41.0634C89.6228 41.0634 90.3513 41.277 90.8548 41.7042C91.3659 42.1314 91.6214 42.7607 91.6214 43.5922C91.6214 44.4695 91.3468 45.137 90.7975 45.5947C90.2559 46.0524 89.4778 46.2812 88.4632 46.2812H85.1563V38.2714H86.2891V41.0634H88.6692ZM88.4175 45.3773C89.0811 45.3773 89.5884 45.2285 89.9393 44.931C90.2979 44.6259 90.4771 44.1872 90.4771 43.6151C90.4771 42.5166 89.7906 41.9674 88.4175 41.9674H86.2891V45.3773H88.4175ZM92.8915 38.2714H94.0244V46.2812H92.8915V38.2714ZM96.5207 38.2714H97.6536V44.4504L102.391 38.2714H103.444V46.2812H102.322V40.1137L97.5735 46.2812H96.5207V38.2714ZM99.965 37.7107C99.3394 37.7107 98.855 37.5772 98.5118 37.3102C98.1761 37.0356 98.0045 36.6465 97.9968 36.1431H98.8093C98.8169 36.4406 98.9199 36.6732 99.1182 36.8411C99.3242 37.0013 99.6064 37.0814 99.965 37.0814C100.308 37.0814 100.583 37.0013 100.789 36.8411C101.002 36.6732 101.113 36.4406 101.121 36.1431H101.922C101.914 36.6389 101.739 37.0241 101.395 37.2988C101.06 37.5734 100.583 37.7107 99.965 37.7107ZM112.595 46.3728C111.794 46.3728 111.07 46.1973 110.421 45.8464C109.78 45.4879 109.277 44.9997 108.911 44.3818C108.545 43.7562 108.362 43.0544 108.362 42.2763C108.362 41.4982 108.545 40.8002 108.911 40.1823C109.277 39.5568 109.784 39.0686 110.433 38.7177C111.081 38.3591 111.806 38.1799 112.607 38.1799C113.232 38.1799 113.804 38.2866 114.323 38.5002C114.842 38.7062 115.284 39.0152 115.651 39.4271L114.907 40.148C114.304 39.5148 113.553 39.1982 112.653 39.1982C112.058 39.1982 111.52 39.3317 111.039 39.5987C110.559 39.8657 110.181 40.2357 109.906 40.7087C109.639 41.174 109.506 41.6966 109.506 42.2763C109.506 42.8561 109.639 43.3824 109.906 43.8554C110.181 44.3207 110.559 44.6869 111.039 44.9539C111.52 45.2209 112.058 45.3544 112.653 45.3544C113.545 45.3544 114.296 45.034 114.907 44.3932L115.651 45.1141C115.284 45.526 114.838 45.8388 114.312 46.0524C113.793 46.266 113.221 46.3728 112.595 46.3728ZM122.243 44.2788H117.987L117.106 46.2812H115.927L119.554 38.2714H120.687L124.326 46.2812H123.125L122.243 44.2788ZM121.843 43.3634L120.115 39.4385L118.387 43.3634H121.843ZM125.708 38.2714H126.841V44.4504L131.579 38.2714H132.631V46.2812H131.51V40.1137L126.761 46.2812H125.708V38.2714ZM129.153 37.7107C128.527 37.7107 128.043 37.5772 127.699 37.3102C127.364 37.0356 127.192 36.6465 127.185 36.1431H127.997C128.005 36.4406 128.108 36.6732 128.306 36.8411C128.512 37.0013 128.794 37.0814 129.153 37.0814C129.496 37.0814 129.771 37.0013 129.977 36.8411C130.19 36.6732 130.301 36.4406 130.308 36.1431H131.109C131.102 36.6389 130.926 37.0241 130.583 37.2988C130.247 37.5734 129.771 37.7107 129.153 37.7107ZM140.632 39.2669H137.886V46.2812H136.765V39.2669H134.03V38.2714H140.632V39.2669Z" fill="#2E2828"/>
</svg>
