<svg width="36" height="36" viewBox="0 0 36 36" fill="none" xmlns="http://www.w3.org/2000/svg">
<mask id="mask0_139_4026" style="mask-type:luminance" maskUnits="userSpaceOnUse" x="0" y="0" width="36" height="36">
<path d="M35.1464 0.342773H0.285156V35.204H35.1464V0.342773Z" fill="white"/>
</mask>
<g mask="url(#mask0_139_4026)">
<path fill-rule="evenodd" clip-rule="evenodd" d="M28.519 28.8642C28.745 28.6846 28.9662 28.4979 29.1821 28.3038C29.1935 28.2952 27.5839 24.4149 26.0215 20.6483C24.5488 17.0982 23.1181 13.6491 23.1262 13.6383C31.6246 6.90506 30.642 5.92818 30.642 5.92818C27.5266 2.59719 23.2412 0.603672 18.6865 0.366616C14.1317 0.129559 9.66253 1.66748 6.21816 4.65705C5.12961 5.60136 4.2168 6.67171 3.47859 7.82921C1.63531 10.5549 0.581947 13.7675 0.47903 17.1064C0.337482 21.699 2.00524 26.1633 5.12317 29.5381C8.24108 32.913 12.5597 34.9283 17.149 35.1501C21.7384 35.3718 26.2311 33.7823 29.6599 30.7238L29.7654 30.6239L30.0152 30.3963L28.519 28.8642Z" fill="url(#paint0_radial_139_4026)"/>
<path d="M22.8655 13.8477C20.2066 16.0291 16.9371 18.5992 13.1348 21.4801C15.9595 24.5348 19.2445 27.1288 22.871 29.1681C25.9851 30.8334 28.4219 31.1442 29.6153 30.0895C30.8088 29.0349 30.6644 26.6036 29.2767 23.4285C27.6337 19.9306 25.4723 16.7006 22.8655 13.8477Z" fill="url(#paint1_linear_139_4026)"/>
<path d="M23.104 13.6318L21.7719 14.7421C24.2111 17.4235 26.2389 20.4521 27.7891 23.729C29.149 26.8596 29.1156 28.4305 28.6772 28.8247C28.2387 29.2187 26.3458 29.3186 23.3206 27.7145C19.9694 25.814 16.9385 23.3974 14.3393 20.5539L12.8516 21.664L13.2013 22.0026C19.5016 28.5138 26.318 32.2218 29.3155 30.8729C29.4043 30.8286 29.4931 30.7841 29.5765 30.7341H29.6097C29.7256 30.6622 29.8352 30.5805 29.9372 30.4899C30.0452 30.3921 30.1438 30.2844 30.2314 30.1679C32.1908 27.5979 29.2157 20.676 23.2873 13.8928L23.104 13.6318Z" fill="#84EEB1"/>
</g>
<defs>
<radialGradient id="paint0_radial_139_4026" cx="0" cy="0" r="1" gradientUnits="userSpaceOnUse" gradientTransform="translate(23.0609 3.5598) scale(75.3097 54.106)">
<stop stop-color="#48F56D"/>
<stop offset="0.09" stop-color="#43EA68"/>
<stop offset="0.25" stop-color="#37CB5A"/>
<stop offset="0.47" stop-color="#239A44"/>
<stop offset="0.73" stop-color="#085625"/>
<stop offset="0.8" stop-color="#00421C"/>
</radialGradient>
<linearGradient id="paint1_linear_139_4026" x1="24.2864" y1="42.4624" x2="17.792" y2="-4.10947" gradientUnits="userSpaceOnUse">
<stop offset="0.1" stop-color="#FF8475"/>
<stop offset="0.37" stop-color="#E84E43"/>
<stop offset="0.6" stop-color="#D6261F"/>
<stop offset="0.79" stop-color="#CC0E08"/>
<stop offset="0.9" stop-color="#C80500"/>
</linearGradient>
</defs>
</svg>
